<svg id="Layer_1" data-name="Layer 1" xmlns="http://www.w3.org/2000/svg" viewBox="0 0 831.02 436.64">
    <defs>
        <style>
            .cls-1 {
                fill: #faa833;
            }

            .cls-2 {
                fill: #b25927;
            }

            .cls-3 {
                fill: #a44c24;
            }

            .cls-4,
            .cls-6 {
                fill: none;
            }

            .cls-5 {
                fill: #f5f8fc;
            }

            .cls-5,
            .cls-6 {
                stroke: #a45125;
            }

            .cls-5,
            .cls-6,
            .cls-7 {
                stroke-miterlimit: 10;
            }

            .cls-7 {
                font-size: 37.22px;
                stroke: #c52127;
                font-family: AdornSCondensedSans, AdornS Condensed Sans;
            }

            .cls-7,
            .cls-8 {
                fill: #c52127;
            }
        </style>
    </defs>
    <g id="right-half">
        <path class="cls-1"
            d="M644,556.18c11.56,8.66,15.8,6.35,15.8,6.35,16.23,3.39,26.76,1.3,69.65,10.54,23.45,5,40.2,7.56,72,12.33,65.1,9.75,50.38,6.36,60.52,8.21,2.42.44,5.76.69,12.44,1.19,4,.3,6.95.44,10.48-.7,1.92-.62,1.37-3.41,2.94-5.21,2.5-2.85,5-5.15,3.77-11-2.55-11.73-3.93-26.4-9-38.66-1.45-3.52-4.62-9.71-5.74-15.31-3.17-15.76-5.55-18.62-8.27-29.36-6.95-27.35-.55-13.68-11.43-42.79-11.28-30.16-24.31-53.69-34.8-80.08-.72-1.81-5.07-6.1-7.09-12.36-3.77-11.64-6.47-10.27-10.3-13-1.81-1.31,3.73-4-1.74-4.73A38.12,38.12,0,0,1,790,337.53c-20.64.44-31,4.48-31,4.48-25.41,4.09-36.56,7.83-50.5,14.91-11.2,5.68-16.19,6.67-32.34,14.74-12.57,6.29-20.33,4.93-21,5.08-2.79.58-7.27,1.19-9.85,4.72a11.5,11.5,0,0,0-1.92,7c-.14,10.71,6-6.7-1.48,16.92-1.8,5.67-.66,6.74-1.79,13.44-1.49,8.8-4,11.74-4.16,22.16-.24,23.09-3.36,12.73-2.85,28.27.18,5.42-.45,10.88.82,33.56.17,3.16.53,11.63,1.3,17.27.23,1.7.16,12.3,1.38,12.87,1.64.77.72,11.11,3.51,11.9C641.13,545.16,643.79,556,644,556.18Z"
            transform="translate(-201.49 -161.32)" />
        <path class="cls-2"
            d="M646.6,428.74c4.1,9.64,3.66,33.18,3.66,33.18-1.6,7.82-1.79.21-3.44,21.42-2.82,36.54-3.34,32.73-3.2,38.73.09,4-1.8,7.61-.13,13.48.68,2.4,1.16,3.67,1.85,3.72,1.85.12,6.43-7.14,6.87-9,1.14-4.89,12.65-12.47,30.92-35,13.76-16.95,24.85-29.38,40-52.91,0,0,23-27.58,44.28-52.65,5.19-6.13,7-10.36,11.87-15.39,2.61-2.67,2.42-10.21,6.22-15.22,2.81-3.71,3.9-4.63,3.55-5.65-.77-2.25-6.31-2.12-10.56-1.9-4.65.24-10-2.07-14.09,0-5.78,2.95-12.36,2.72-17.42,4-10.78,2.69-12.37,3.86-25.89,9.73-21.76,9.45-37.57.42-51.57,8-7.39,4-1.18-1.32-14.19,5.11-11.12,5.5-21.12-2-15.61,3.32,2.13,2.06,3.94,24.22,4.69,37.57a11.55,11.55,0,0,0-.29,3.94C644.43,425.77,645.93,427.16,646.6,428.74Z"
            transform="translate(-201.49 -161.32)" />
        <path class="cls-3"
            d="M652.08,435.45c-2.37,32.92-4.57,63.38-6.76,93.84l3.78,2,101-124-26-18.47,1.54-2.29c6.89,4.89,13.54,10.18,20.78,14.48,2.66,1.58,8.66,2.4,9.82.93,11.89-15,26.07-28.8,29.87-48.91-25.21-5.68-37.29,6-80.6,19.13-37.51-7.94-60.73,12.5-69.16,6.51,9.62,12.32,60.05-19.58,75.13-25,22.08-7.9,45.5-12.19,68.51-17.32,16.16-3.6,26.78,4.22,34.66,18.08C839.54,398.11,859,444,872,492.54c7.32,27.41,14.41,55,19.29,82.9,3.21,18.33-4.78,24.63-23,21.92q-85.63-12.76-171.2-25.92c-14.88-2.31-29.8-5.05-44.22-9.27-5.51-1.61-12.94-7.31-13.85-12.19a449.88,449.88,0,0,1-7.6-62.45c-.68-15.8,1.39-31.86,3.7-47.59,1.6-10.84,12.1-55.06,1.32-61.32,16.86,12-1.18,44.85,15.67,56.83m156-84.47C766,428.85,702.39,488.31,649.61,557.47c4.24,1.11,8.2,2.47,12.27,3.17,31.87,5.46,63.72,11,95.65,16.09,36.18,5.73,72.45,10.84,108.64,16.46,18,2.79,22.65-1,21.57-19.08-.41-6.88-.59-14-2.48-20.52C870.09,501,857.71,447.45,832.92,398.12,825,382.36,816.48,366.9,808.07,351Zm-16.87-5.93c-2.19,20.44-9.22,33.16-19.65,45.27-28.69,33.32-56.29,67.59-84.49,101.35-13.39,16-27.15,31.75-43.17,50.44-1-7.39-2.08-11-1.84-14.5,1.94-28.79,4.31-57.54,6-86.34.24-4.13-2.36-8.43-3.65-12.66l-4.57,1.17c-4.7,41.29-10.56,82.64,5.2,126.79,39.47-47.82,77.1-92.24,113.26-137.81,13.85-17.45,24.42-37.5,36.29-56.5,1.53-2.45,1.7-5.72,2.78-8.5s4-5.86,3.27-7.69c-1-2.51-4.43-5.09-7.24-5.69-22.38-4.73-79.69,11.07-97.71,28.41,15-4.08,29.21-11.07,44.2-15.06C755.82,349.49,772.5,348.08,791.2,345.05Z"
            transform="translate(-201.49 -161.32)" />
        <path class="cls-4"
            d="M645.05,556.57c-15.76-44.15-9.9-85.5-5.2-126.79l4.57-1.17c1.29,4.23,3.89,8.53,3.65,12.66-1.71,28.8-4.08,57.55-6,86.34-.24,3.51.85,7.11,1.84,14.5,16-18.69,29.78-34.41,43.17-50.44,28.2-33.76,55.8-68,84.49-101.35C782,378.21,789,365.49,791.2,345.05c-18.7,3-35.38,4.44-51.3,8.68-15,4-29.18,11-44.2,15.06,18-17.34,75.33-33.14,97.71-28.41,2.81.6,6.24,3.18,7.24,5.69.73,1.83-2.24,5-3.27,7.69s-1.25,6.05-2.78,8.5c-11.87,19-22.44,39.05-36.29,56.5"
            transform="translate(-201.49 -161.32)" />
    </g>
    <g id="left-half">
        <path class="cls-1"
            d="M444.61,335.79c-11.77,8.37-24,36.33-24,36.33-8.17,14.42-6.14,9.22-28,47.27-12,20.79-19.44,36-33.68,64.84-29.11,59-21.41,46-26.25,55.14-1.16,2.17-2.42,5.27-4.93,11.48-1.5,3.72-2.53,6.5-2.52,10.2,0,2,0,4.36,1.23,6.4,2,3.25,6.2,4.35,12.13,4.92,11.95,1.14,19.56-.93,32.78-2,3.79-.31,6.65-.4,12.35-.6a375.86,375.86,0,0,1,39.1.91c28.16,1.71,11.94.41,42.95,2.38,30.44,1.93,60.9,3.59,91.34,5.48,1.94.12,6.86.43,13.44.41,12.23-.05,16.17,1.73,20-1.07,1.79-1.33,3-3.84,5.39-8.82a114.44,114.44,0,0,0,5.94-15A290.66,290.66,0,0,0,610,519c3.84-25.45,5.76-38.18,3.27-53.61-2-12.4-5.11-17.65-7.88-35.5-2.15-13.89-3.23-20.83-3.15-21.56.29-2.83,1.08-7.28-1.49-10.82a11.58,11.58,0,0,0-6.1-4c-10.16-3.39-12.15-11-32.36-25.37a116.26,116.26,0,0,0-15-9.43c-7.93-4.09-12.87-5.33-22.76-8.62-21.92-7.26-19-8.26-34-12.52-5.22-1.48-5.33-1.29-27.32-7-3.06-.79-5.61-1.94-11.22-2.93-1.69-.29-3.45-.53-4.37.45-1.23,1.32.13,3.66-1.47,6.08A5.77,5.77,0,0,1,444.61,335.79Z"
            transform="translate(-201.49 -161.32)" />
        <path class="cls-2"
            d="M592.56,393.38c-9.75-4.62-31.4-14.42-31.4-14.42-7.12-3.63-16.94-7.72-36.57-15.91-33.77-14.07-29.83-10.7-35.13-13.49-3.55-1.87-6.51-2.57-12.45-4-2.43-.58-3.78-.77-4.15-.19-1,1.55,5.72,7.55,7.17,8.86,3.72,3.38,12.79,15.27,30.94,39.06,13.24,17.35,21.48,32.71,34.71,57.35,0,0,20,36.1,31.55,66.83,2.84,7.53,4.8,14.77,4.8,14.77a39.39,39.39,0,0,0,3.27,14.81c1.87,4.25,2.15,5.66,3.21,5.85,2.34.42,5.4-4.28,6.79-8.3s.78-6.72.94-11.32c.23-6.49,1.85-10.05,3.21-15.1,2.89-10.72,1-14.76,2.45-29.43,2.32-23.61,8.27-24.14,7-40-.62-7.72-2.11-8.64-3.77-21.89-1.54-12.31-.45-16.19-1.51-23.77-.2-1.46-.77-5.16-3.4-6.79a16.17,16.17,0,0,0-2.38-1C595.39,394.41,594.1,394.12,592.56,393.38Z"
            transform="translate(-201.49 -161.32)" />
        <path class="cls-3"
            d="M604,399.64c-6-5-62.25-29.17-69.08-32.19a406,406,0,0,0-60.23-21.15c51.84,59.47,91.36,124.91,111.73,201.3l6.65-.41,11.2-87.86c-6.85,2.95.48-65.92-6.06-63.11,11.9-9.35,7.36,57.45,16.93,49.93,1.27,40.28.85,74.81-11.33,112-7.09,21.63-12.13,26.73-35.32,25.62-56.44-2.7-112.81-6.66-169.25-9.52-13.25-.67-26.64,1.7-39.93,1.33-11.79-.33-23.53-2.52-35.3-3.89,1.7-11.39.73-24.09,5.56-33.94,23.11-47.08,47.29-93.66,72.15-139.85,11-20.46,24.71-39.46,36.82-59.35,6.77-11.11,14.73-16,28.14-10.86q44.34,17,89.3,32.42M445.2,336.23c-19.12,30.71-38.85,59.36-55.41,89.74-20.6,37.81-39.31,76.71-57.44,115.79-12.85,27.71-7.65,33.37,22.22,30.46,17.66-1.72,35.58-2.71,53.28-1.87,52.51,2.48,105,6.11,157.46,9.06,6.1.35,12.29-.67,17.79-1C548.5,490.83,505.83,409.55,445.2,336.23ZM595.29,558.69l-7.73,1a641.61,641.61,0,0,0-123.62-217.5q2-2.49,3.91-5l89.91,33.7,1.26-3.71c-33.35-17.78-68.8-29.78-110.72-38.58,8.35,12.79,14.05,21.77,20,30.56,15.15,22.34,32.45,43.5,45.2,67.12,23.73,44,44.8,89.39,67.08,134.16,2.42,4.86,5.5,9.39,10.53,17.9,17.75-44,24.89-84.64,18.79-127.6Q602.61,504.7,595.29,558.69Z"
            transform="translate(-201.49 -161.32)" />
    </g>
    <g id="cookie-left">
        <path class="cls-1"
            d="M317.07,530.31c3.47-6.24,4.46-9.84,4.18-13.22a23.81,23.81,0,0,0-.42-6.66c-.58-2.64-1.76-3.51-2.25-6.05-.19-1-.5-2.56-.78-4.6a55.48,55.48,0,0,0-1.05-7c-1.44-6-3.6-6.59-6.51-14.48-1.95-5.29-1.22-5.22-2.45-7.86-1.14-2.43-3.72-6.71-15.24-13.32a103.77,103.77,0,0,0-21.28-9.4,108.94,108.94,0,0,0-15.52-3.23c-4.7-.7-8.66-1-16.59-1.55-5.39-.4-4-.07-5.14-.26a5.27,5.27,0,0,0-3.07,0,4.06,4.06,0,0,0-2,1.82,5.55,5.55,0,0,0,.06,4.35c2,5.86,8,15,9.94,18.08,2.3,3.68,1.42,2.91,5,9.3,5.72,10.1,8.93,15,9.9,15.77a1.4,1.4,0,0,1,.61,1c0,.68-.87,1.28-1.53,1.51-1.39.47-2.75-.42-4.14-1.16-2.11-1.11-4.5-1.56-6.73-2.41,0,0-4-1.52-7.84-2.85-3.47-1.2-3.12-.92-9.69-3-1.47-.46-8.06-2.5-13.12-2.23a3.7,3.7,0,0,0-2,.62c-1.89,1.34-1.72,4.54-1.66,5.83.5,11.09-1.13,8.75.12,16.89A72.22,72.22,0,0,0,214,527c5.22,11.1,12,17.87,16.43,22.19a78.55,78.55,0,0,0,25.22,17.22c13.53,5.66,22.18,4.51,24.21,4.19a25.69,25.69,0,0,0,9.21-3.14c2.74-1.62,4.6-3.49,8.29-8.14A178.94,178.94,0,0,0,310,541.2,80.37,80.37,0,0,0,317.07,530.31Z"
            transform="translate(-201.49 -161.32)" />
        <path class="cls-3"
            d="M252.43,491.73q-7.35-12-14.67-24.09c-3.35-5.54-6.93-11-9.84-16.74-2.81-5.59-.92-9.11,5.22-9.28,20.82-.57,40.93,2.75,59,13.81,10.84,6.65,17.84,16.7,21.76,28.75,2.65,8.15,4.74,16.48,7.39,24.64s1,15.32-3.81,22.31a237.33,237.33,0,0,0-12.81,20.92c-9.55,17.4-29.06,27-48,19-35-14.76-51.33-33.88-55.08-71.61,0-.18,0-.35-.05-.53-.59-14.18,4-18.78,17.74-15.88,10,2.11,19.72,5.92,29.55,9,.81.25,1.6.54,2.4.81Zm57.28,18.6,1-.61c.84,2.21,1.69,4.41,2.53,6.62-2.25.82-4.71,2.66-6.71,2.26a73.89,73.89,0,0,1-15.44-4.87c-16.43-7.37-32.53-15.55-49.13-22.52-8.3-3.48-17.32-5.56-26.21-7.28-6.73-1.3-8.28.53-8.1,7.18a143.16,143.16,0,0,0,1.28,18.3c5,31.59,34.75,58.39,67.61,60.88a19.86,19.86,0,0,0,12.64-3.83,71.69,71.69,0,0,0,13.72-14.88c5.06-7.05,9-14.9,13.8-22.16,3.67-5.56,5.56-11.27,3.68-17.83-2.61-9.09-5-18.25-8-27.2-4.24-12.52-11.73-22.91-23.6-29.07a96.83,96.83,0,0,0-23.45-8.8c-9.85-2.16-20.07-2.94-30.18-3.49-7-.38-8.26,2.34-5.13,8.81,1.07,2.2,2.28,4.33,3.53,6.44q10.29,17.39,20.65,34.72a6.37,6.37,0,0,0,2.41,2.59c15.73,7.2,31.46,14.42,47.34,21.28,2,.88,4.95-.26,7.45-.47ZM205.18,487c-4.33,21.47,1.77,40.38,14.54,57.22,10.36,13.67,42.45,31.9,51.14,27.71C228.16,560.32,204.71,533.22,205.18,487Z"
            transform="translate(-201.49 -161.32)" />
        <path class="cls-3"
            d="M205.18,487c-.47,46.22,23,73.32,65.68,84.93-8.69,4.19-40.78-14-51.14-27.71C207,527.38,200.85,508.47,205.18,487Z"
            transform="translate(-201.49 -161.32)" />
        <path class="cls-3" d="M301.63,502.22l-21.35-15.35.81-1.12L302.54,501Z"
            transform="translate(-201.49 -161.32)" />
    </g>
    <g id="cookie-right">
        <path class="cls-1"
            d="M910.33,562.63c3.2,6.38,5.62,9.23,8.57,10.9a23.46,23.46,0,0,0,5.74,3.41c2.51,1,3.89.53,6.27,1.55,1,.42,2.4,1,4.24,2a55.2,55.2,0,0,0,6.38,3.07c5.75,2.18,7.47.74,15.64,2.78,5.47,1.37,5,1.93,7.87,2.4,2.64.43,7.64.71,19.59-5.08a103.69,103.69,0,0,0,19.75-12.3,106.8,106.8,0,0,0,11.41-11c3.23-3.48,5.68-6.6,10.62-12.82,3.37-4.23,2.33-3.3,3.11-4.1a5.29,5.29,0,0,0,1.75-2.52,4,4,0,0,0-.38-2.67,5.64,5.64,0,0,0-3.63-2.4c-6-1.61-16.91-1.82-20.54-2-4.33-.18-3.2-.47-10.51-1.09-11.58-1-17.39-1-18.61-.7a1.42,1.42,0,0,1-1.17-.06c-.55-.38-.56-1.43-.38-2.1.39-1.42,1.9-2,3.29-2.78,2.1-1.11,3.83-2.83,5.78-4.2,0,0,3.49-2.42,6.77-4.87,2.94-2.19,2.52-2.06,7.9-6.35,1.2-1,6.61-5.26,9.23-9.59a3.8,3.8,0,0,0,.62-2c0-2.31-2.79-4-3.89-4.66-9.44-5.83-6.59-5.86-14-9.4a72.17,72.17,0,0,0-20.6-6.71,74,74,0,0,0-27.58,1.08,78.54,78.54,0,0,0-28.44,11.15c-12.29,8-16.22,15.78-17.1,17.64a25.91,25.91,0,0,0-2.59,9.38c-.2,3.18.29,5.77,2.05,11.44a179.84,179.84,0,0,0,7.84,20.67A80.81,80.81,0,0,0,910.33,562.63Z"
            transform="translate(-201.49 -161.32)" />
        <path class="cls-3"
            d="M978.62,531c9.39.48,18.78.93,28.16,1.45,6.47.35,13,.45,19.38,1.3,6.21.82,8,4.37,4.73,9.53-11.26,17.53-25.32,32.28-44.63,41-11.61,5.21-23.85,5.34-36,1.79-8.23-2.39-16.3-5.36-24.52-7.77s-13.24-7.77-16.3-15.71a235.94,235.94,0,0,0-10.07-22.37c-9-17.69-6-39.22,11.3-50.36,31.9-20.59,56.92-23.34,90.2-5.18a3.42,3.42,0,0,1,.46.26c12.06,7.49,13.27,13.88,3.14,23.6-7.4,7.1-16,13-24.06,19.37-.66.52-1.34,1-2,1.52ZM931,567.81l-.05,1.17-6.9-1.64c.59-2.32.45-5.39,1.92-6.82a74,74,0,0,1,12.71-10c15.35-9.43,31.17-18.12,46.28-27.91,7.56-4.9,14.35-11.19,20.78-17.56,4.86-4.83,4.23-7.14-1.37-10.74a144.55,144.55,0,0,0-15.85-9.25c-28.9-13.67-67.82-4.17-88.38,21.58a19.81,19.81,0,0,0-4,12.6A72.2,72.2,0,0,0,900.73,539c3,8.15,7.25,15.83,10.54,23.88,2.53,6.17,6.19,10.94,12.66,13.08,9,3,17.9,6.16,27,8.69,12.74,3.55,25.55,3.22,37.31-3.12a96.79,96.79,0,0,0,20.49-14.42c7.33-6.92,13.74-14.93,19.88-23,4.25-5.57,2.72-8.15-4.39-9.2-2.42-.36-4.87-.56-7.31-.71q-20.16-1.29-40.32-2.5a6.58,6.58,0,0,0-3.5.53c-14.81,8.95-29.63,17.88-44.24,27.14-1.88,1.19-2.57,4.24-3.82,6.42Zm78.16-73.23c-15.3-15.68-34.37-21.29-55.48-20.22-17.12.87-50.26,17.12-51.7,26.65C935.61,472.26,971.21,468.16,1009.14,494.58Z"
            transform="translate(-201.49 -161.32)" />
        <path class="cls-3"
            d="M1009.14,494.58C971.21,468.16,935.61,472.26,902,501c1.44-9.53,34.58-25.78,51.7-26.65C974.77,473.29,993.84,478.9,1009.14,494.58Z"
            transform="translate(-201.49 -161.32)" />
        <path class="cls-3" d="M942.24,565.7l24.7-9,.47,1.3-24.65,9.16Z" transform="translate(-201.49 -161.32)" />
    </g>
    <g id="crumb1">
        <path class="cls-1"
            d="M492,309.53a22.8,22.8,0,0,1-2.83-2.15c-1-.85-1.35-1.22-1.25-1.48s1-.34,1.25-.34c.07,0,3.08-.7,9.09-2.09,4.18-1,6.94-1.75,6.94-1.75a33.37,33.37,0,0,1,6.19-.67c.46,0,1.48-.07,1.68.38s-.55,1-1.22,2.34a11.6,11.6,0,0,0-.69,2c-.15.52-.87,2.92-1.45,4.66a20.17,20.17,0,0,1-1.68,4.08,6.58,6.58,0,0,1-1.52,2.07,5.18,5.18,0,0,1-4.93.87c-.9-.36-.8-.72-3-3.05a18.13,18.13,0,0,0-3.54-3.25C493.85,310.36,493.75,310.6,492,309.53Z"
            transform="translate(-201.49 -161.32)" />
        <path class="cls-3"
            d="M487.23,305.41c4.34,3,8.71,6,13,9.15.48.35.54,1.29.8,2l-4.92-1.46a51.85,51.85,0,0,0-5.64-3.62A5.2,5.2,0,0,1,487.23,305.41Z"
            transform="translate(-201.49 -161.32)" />
        <path class="cls-3"
            d="M496.11,315.06l4.92,1.46c4,2.17,5.74.05,7.63-3.43,2.32-4.28,2.19-9.31,4.73-11.65-2.42,5-4.44,11.95-7.2,16.74-.54.93-3.38,1.34-4.72.82C499.48,318.23,497.88,316.43,496.11,315.06Z"
            transform="translate(-201.49 -161.32)" />
        <path class="cls-3"
            d="M513.39,301.44c-.57,0-1.21,0-1.67,0-7.48-.59-19.22,6.79-24.49,4,1,.07,10.64-3.94,11.66-4,3.08-.21,6.56.28,9.12-1S512,299,513.39,301.44Z"
            transform="translate(-201.49 -161.32)" />
        <path class="cls-3" d="M498.06,301.81" transform="translate(-201.49 -161.32)" />
    </g>
    <g id="crumb2">
        <path class="cls-1"
            d="M548.68,340.25a22,22,0,0,1-2.83-2.16c-1-.84-1.35-1.21-1.25-1.48s1-.34,1.25-.33c.07,0,3.08-.7,9.09-2.09,4.18-1,6.93-1.75,6.93-1.75a33.62,33.62,0,0,1,6.2-.67c.46,0,1.48-.07,1.68.38s-.55,1-1.22,2.34a11.6,11.6,0,0,0-.69,2c-.15.52-.87,2.92-1.45,4.65a20.77,20.77,0,0,1-1.68,4.09,6.68,6.68,0,0,1-1.52,2.06,5.16,5.16,0,0,1-4.93.88c-.9-.37-.8-.73-3-3a18.42,18.42,0,0,0-3.54-3.25C550.53,341.08,550.43,341.32,548.68,340.25Z"
            transform="translate(-201.49 -161.32)" />
        <path class="cls-3"
            d="M543.91,336.13c4.34,3,8.71,6,13,9.15.49.35.55,1.29.8,2l-4.91-1.46a51.85,51.85,0,0,0-5.64-3.62A5.2,5.2,0,0,1,543.91,336.13Z"
            transform="translate(-201.49 -161.32)" />
        <path class="cls-3"
            d="M552.79,345.78l4.91,1.46c4,2.17,5.75.05,7.64-3.43,2.32-4.28,2.19-9.31,4.72-11.65-2.41,5-4.43,11.95-7.19,16.74-.54.93-3.39,1.34-4.72.82C556.15,349,554.56,347.15,552.79,345.78Z"
            transform="translate(-201.49 -161.32)" />
        <path class="cls-3"
            d="M570.06,332.16c-.56,0-1.2,0-1.66,0-7.48-.59-19.22,6.78-24.49,4,1,.07,10.63-3.94,11.66-4,3.08-.21,6.55.28,9.12-1S568.65,329.75,570.06,332.16Z"
            transform="translate(-201.49 -161.32)" />
        <path class="cls-3" d="M554.74,332.53" transform="translate(-201.49 -161.32)" />
    </g>
    <g id="crumb3">
        <path class="cls-1"
            d="M575.17,485.9a21.38,21.38,0,0,1-2.83-2.16c-1-.84-1.35-1.22-1.25-1.48s1-.34,1.25-.34c.07,0,3.08-.69,9.09-2.08,4.17-1,6.93-1.75,6.93-1.75a34,34,0,0,1,6.2-.68c.46,0,1.47-.06,1.68.39s-.55,1-1.22,2.34a10.5,10.5,0,0,0-.69,2c-.15.52-.87,2.92-1.45,4.65a21.49,21.49,0,0,1-1.68,4.09,6.68,6.68,0,0,1-1.52,2.06,5.14,5.14,0,0,1-4.93.87c-.9-.36-.81-.72-3-3a18.09,18.09,0,0,0-3.54-3.25C577,486.73,576.92,487,575.17,485.9Z"
            transform="translate(-201.49 -161.32)" />
        <path class="cls-3"
            d="M570.4,481.78c4.34,3,8.7,6,13,9.14.49.36.55,1.3.8,2l-4.91-1.46a51.53,51.53,0,0,0-5.65-3.63A5.17,5.17,0,0,1,570.4,481.78Z"
            transform="translate(-201.49 -161.32)" />
        <path class="cls-3"
            d="M579.28,491.43l4.91,1.46c4,2.16,5.74.05,7.64-3.43,2.32-4.28,2.18-9.32,4.72-11.65-2.41,5-4.43,11.95-7.19,16.73-.54.94-3.39,1.35-4.72.83C582.64,494.6,581,492.8,579.28,491.43Z"
            transform="translate(-201.49 -161.32)" />
        <path class="cls-3"
            d="M596.55,477.81c-.56,0-1.2,0-1.66,0-7.49-.59-19.22,6.78-24.49,4,1,.07,10.63-3.94,11.66-4,3.08-.21,6.55.28,9.12-1S595.14,475.4,596.55,477.81Z"
            transform="translate(-201.49 -161.32)" />
        <path class="cls-3" d="M581.23,478.18" transform="translate(-201.49 -161.32)" />
    </g>
    <g id="crumb4">
        <path class="cls-1"
            d="M640.13,560.76a20.57,20.57,0,0,1,3.48-.68c1.3-.2,1.81-.21,1.94,0s-.4,1-.58,1.16-1.52,2.77-4.46,8.19c-2,3.76-3.29,6.35-3.29,6.35a34.11,34.11,0,0,1-3.61,5.08c-.29.36-.93,1.15-1.4,1s-.38-1.06-1-2.47a10.73,10.73,0,0,0-1-1.82c-.29-.46-1.61-2.59-2.52-4.17a20.23,20.23,0,0,1-1.94-4,6.7,6.7,0,0,1-.54-2.5,5.17,5.17,0,0,1,2.62-4.27c.87-.43,1.07-.12,4.27-.21a18.06,18.06,0,0,0,4.78-.5C638.27,561.59,638.16,561.36,640.13,560.76Z"
            transform="translate(-201.49 -161.32)" />
        <path class="cls-3"
            d="M646.37,559.92c-5.15,1.24-10.29,2.51-15.46,3.66-.59.13-1.33-.45-2-.7l4.35-2.71a51.88,51.88,0,0,0,6.46-1.82A5.18,5.18,0,0,1,646.37,559.92Z"
            transform="translate(-201.49 -161.32)" />
        <path class="cls-3"
            d="M633.26,560.17l-4.35,2.71c-4.3,1.58-3.85,4.26-2.5,8,1.66,4.57,5.52,7.81,5.58,11.26-2.13-5.11-6-11.24-7.75-16.48-.34-1,1.24-3.43,2.51-4.08C628.65,560.58,631.06,560.58,633.26,560.17Z"
            transform="translate(-201.49 -161.32)" />
        <path class="cls-3"
            d="M632,582.13c.39-.4.8-.9,1.13-1.22,5.4-5.21,7.67-18.89,13.25-21-.74.73-4.11,10.58-4.74,11.39-1.88,2.44-4.55,4.72-5.29,7.5S634.73,582.67,632,582.13Z"
            transform="translate(-201.49 -161.32)" />
        <path class="cls-3" d="M641.88,570.42" transform="translate(-201.49 -161.32)" />
    </g>
    <g id="crumb5">
        <path class="cls-1"
            d="M661,420a21.38,21.38,0,0,1-2.83-2.16c-1-.84-1.35-1.22-1.26-1.48s1-.34,1.26-.34c.07,0,3.08-.69,9.09-2.08,4.17-1,6.93-1.75,6.93-1.75a34,34,0,0,1,6.2-.68c.46,0,1.47-.07,1.68.39s-.55,1-1.22,2.34a10.5,10.5,0,0,0-.69,2c-.15.52-.87,2.92-1.45,4.65A21.49,21.49,0,0,1,677,425a6.68,6.68,0,0,1-1.52,2.06,5.14,5.14,0,0,1-4.93.87c-.9-.36-.81-.72-3-3.05a18.46,18.46,0,0,0-3.55-3.25C662.82,420.85,662.72,421.09,661,420Z"
            transform="translate(-201.49 -161.32)" />
        <path class="cls-3"
            d="M656.2,415.9c4.34,3,8.7,6,13,9.14.49.35.54,1.3.8,2l-4.91-1.46a51.53,51.53,0,0,0-5.65-3.63A5.17,5.17,0,0,1,656.2,415.9Z"
            transform="translate(-201.49 -161.32)" />
        <path class="cls-3"
            d="M665.08,425.55,670,427c4,2.16,5.74,0,7.63-3.44,2.33-4.27,2.19-9.31,4.73-11.65-2.41,5-4.43,11.95-7.19,16.74-.54.94-3.39,1.34-4.72.83C668.44,428.72,666.84,426.91,665.08,425.55Z"
            transform="translate(-201.49 -161.32)" />
        <path class="cls-3"
            d="M682.35,411.92c-.56,0-1.2,0-1.66,0-7.49-.59-19.22,6.79-24.49,4,1,.07,10.63-3.94,11.66-4,3.08-.21,6.55.27,9.12-1S680.94,409.51,682.35,411.92Z"
            transform="translate(-201.49 -161.32)" />
        <path class="cls-3" d="M667,412.29" transform="translate(-201.49 -161.32)" />
    </g>
    <g id="crumb6">
        <path class="cls-1"
            d="M665.36,339.71a21.38,21.38,0,0,1-2.83-2.16c-1-.84-1.35-1.22-1.26-1.48s1-.34,1.26-.34c.07,0,3.08-.69,9.09-2.08,4.17-1,6.93-1.75,6.93-1.75a33.75,33.75,0,0,1,6.2-.68c.46,0,1.47-.06,1.68.39s-.55,1-1.22,2.34a10.5,10.5,0,0,0-.69,2c-.15.52-.87,2.92-1.45,4.65a21.49,21.49,0,0,1-1.68,4.09,6.68,6.68,0,0,1-1.52,2.06,5.14,5.14,0,0,1-4.93.87c-.9-.36-.81-.72-3-3a18.24,18.24,0,0,0-3.55-3.26C667.21,340.54,667.11,340.78,665.36,339.71Z"
            transform="translate(-201.49 -161.32)" />
        <path class="cls-3"
            d="M660.59,335.59c4.34,3,8.7,6,13,9.14.49.36.54,1.3.8,2l-4.91-1.46a51.53,51.53,0,0,0-5.65-3.63A5.17,5.17,0,0,1,660.59,335.59Z"
            transform="translate(-201.49 -161.32)" />
        <path class="cls-3"
            d="M669.47,345.24l4.91,1.46c4,2.16,5.74.05,7.63-3.44,2.33-4.27,2.19-9.31,4.73-11.64-2.41,5-4.43,11.95-7.19,16.73-.54.94-3.39,1.34-4.72.83C672.83,348.41,671.23,346.6,669.47,345.24Z"
            transform="translate(-201.49 -161.32)" />
        <path class="cls-3"
            d="M686.74,331.62c-.56,0-1.2,0-1.66,0-7.49-.59-19.22,6.78-24.49,4,1,.07,10.63-3.94,11.66-4,3.08-.21,6.55.28,9.12-1S685.33,329.2,686.74,331.62Z"
            transform="translate(-201.49 -161.32)" />
        <path class="cls-3" d="M671.42,332" transform="translate(-201.49 -161.32)" />
    </g>
    <g id="fortune">
        <path class="cls-5"
            d="M746.87,428.31a47.65,47.65,0,0,0-16.67.57c-2.12.45-4.38,1.07-12.1,3.9-13.21,4.86-13.46,5.55-18,7-7.93,2.46-13.82,2.39-24.3,2.27-6.62-.07-7.34-.55-21.92-1.83-14.42-1.27-21.63-1.9-26.74-1.61a79.49,79.49,0,0,0-28.1,6.07c-9.8,4.21-14.57,8.89-26,17.85A429.74,429.74,0,0,1,536.57,488l2.71-12.92c-.12-.67-.32-1.69-.65-2.9-1.59-5.83-4-7.79-5.41-11.25-2-4.69-.11-7.13-.84-12.75-.56-4.27-2.58-10.11-9.42-16.08,1.34-1.54,3.24-3.69,5.56-6.19a245,245,0,0,1,22.28-21.4c6.42-5.29,17.55-14.48,33.46-20.89,10.12-4.08,18.54-4.95,35.31-7a131.53,131.53,0,0,1,18.1-1.42c10.11,0,13.81,1.4,24.51,1.46,4.47,0,4.51-.22,17-1,25.78-1.7,24.3-.6,36-2,11-1.28,14.08-2.45,22.25-2.09A77.36,77.36,0,0,1,753.73,374c-.22,2.11-.61,5.46-1.25,9.55-1.57,9.93-3,14-4.07,20.62a84.19,84.19,0,0,0-.89,16.66,7.39,7.39,0,0,0,.7,2.87l2.57,5.46Z"
            transform="translate(-201.49 -161.32)" />
        <path class="cls-6"
            d="M744.09,418.86a15.09,15.09,0,0,0-5.23-2.35,17,17,0,0,0-9.24.75c-7.07,2.14-13.32,4.43-18,6.26"
            transform="translate(-201.49 -161.32)" />
        <path class="cls-6" d="M693.06,432.36a18,18,0,0,1-6.23,2.46,15.93,15.93,0,0,1-11.13-2.16"
            transform="translate(-201.49 -161.32)" />
        <path class="cls-6" d="M602.27,384.71a48.43,48.43,0,0,0-13.44,4.79,57.29,57.29,0,0,0-13.19,9.72"
            transform="translate(-201.49 -161.32)" />
        <path class="cls-6" d="M565.09,405.39,556,413.05" transform="translate(-201.49 -161.32)" /><text class="cls-7"
            transform="matrix(0.92, -0.1, 0.1, 0.99, 398.74, 264.57)">I</text><text class="cls-7"
            transform="matrix(0.92, -0.09, 0.1, 1, 406.89, 263.72)"> </text><text class="cls-7"
            transform="translate(414.7 262.96) rotate(-5.08) scale(0.92 1)">&lt;</text><text class="cls-7"
            transform="translate(428.66 261.71) rotate(-4.61) scale(0.92 1)">3</text><text class="cls-7"
            transform="translate(445.18 260.39) rotate(-4.31) scale(0.92 1)"> </text><text class="cls-7"
            transform="translate(453.01 259.79) rotate(-4) scale(0.92 1)">U</text><text class="cls-7"
            transform="translate(470.86 258.56) rotate(-3.7) scale(0.92 1)">!</text></g>
    <g id="left-heart1">
        <path class="cls-8"
            d="M307.81,402.88A20.71,20.71,0,0,0,295.38,401c-4.05.81-6.84,4.13-6.19,8.32s4.22,6.51,7.84,7.82c4.23,1.54,8.67,2.63,13,3.9l15.21,4.5a2.52,2.52,0,0,0,3.07-3.08l-3.82-13.87c-1.17-4.26-2.18-8.61-3.61-12.78-1.18-3.44-2.85-6.75-5.86-8.93a8.38,8.38,0,0,0-5.72-1.71,6.08,6.08,0,0,0-5,4.08c-1.8,4.42-1.15,10.08.58,14.41a2.58,2.58,0,0,0,3.08,1.74,2.52,2.52,0,0,0,1.75-3.07,18.35,18.35,0,0,1-1.41-6.81,15.61,15.61,0,0,1,.3-3.27c.12-.59.28-1.59.82-2,1-.69,2.71.6,3.42,1.29a12,12,0,0,1,2.62,4.08c1.72,4.08,2.6,8.59,3.77,12.84l4.22,15.31,3.08-3.07-14.26-4.22c-4.51-1.33-9.11-2.51-13.56-4a7.66,7.66,0,0,1-4.06-2.62c-.68-1-1-2.4.05-3.26s3-.92,4.33-.87a16.79,16.79,0,0,1,6.23,1.45,2.57,2.57,0,0,0,3.42-.89,2.52,2.52,0,0,0-.9-3.42Z"
            transform="translate(-201.49 -161.32)" />
        <path class="cls-8"
            d="M311.42,405.18a3.57,3.57,0,0,1-.24-2.42c.1-1.42.22-2.83.33-4.25.2-2.58.2-5.25,1.1-7.71l-4.18,1.1c3.75,3.2,5.4,7.88,6.44,12.56,1.27,5.73,1.88,11.5,4.25,16.93.74,1.67,3.56,1.59,4.32,0,1.32-2.75-.12-5-1.39-7.41a75.59,75.59,0,0,1-3.23-7,82,82,0,0,1-4.38-14.88l-4.57,1.93c2,3.35,3.73,6.83,5.37,10.36.82,1.77,1.61,3.55,2.39,5.33l1.2,2.79c.08.19.32,1,.44,1l.28-.87-.12,0c-.06-.07-1-.2-1.21-.34a6.7,6.7,0,0,1-1.48-1.48,17.54,17.54,0,0,1-2.4-4.12,12.72,12.72,0,0,1-.42-9.18L309,397c.14,4,1.5,7.71,2.76,11.45l4,11.71,3.68-2.82c-4.32-2.59-8.91-5.85-10.66-10.78l-3.08,3.07a12,12,0,0,1,5.35,4.24l3.42-3.42c-3.57-2.7-7.31-5.4-11.68-6.61a13.17,13.17,0,0,0-6.79-.36,5.2,5.2,0,0,0-3.81,5.18c.12,5,5.19,6.61,9.14,7.93l3.46,1.16a12.58,12.58,0,0,0,3.65,1,3.46,3.46,0,0,0,3-5.24c-1.24-2.13-3.94-3.16-6.06-4.17a34.67,34.67,0,0,1-6.47-3.54l-2.44,4.18a51.78,51.78,0,0,1,9.22,2.6V407.7a24.34,24.34,0,0,1-8.12-.27,2.55,2.55,0,0,0-3.07,1.74,2.52,2.52,0,0,0,1.74,3.08,31.24,31.24,0,0,0,10.78.27,2.52,2.52,0,0,0,1.84-2.41A2.6,2.6,0,0,0,307,407.7a52.66,52.66,0,0,0-9.22-2.61,2.6,2.6,0,0,0-2.82,1.15,2.5,2.5,0,0,0,.39,3,33.22,33.22,0,0,0,6.33,3.78c1,.49,2,1,3.06,1.48.56.29,1.12.6,1.67.92.11.07.43.34.55.34s0,0,0,0c.37.18.38-.21,0-1.16l.89-.9c.49-.34.67.14.2-.18a4.15,4.15,0,0,0-.92-.31l-2.54-.85c-1.54-.51-3.09-1-4.62-1.55a5.16,5.16,0,0,1-2.71-1.59c-.22-.37-.3-.87-.13-1,.7-.52,2.61,0,3.39.14a16.48,16.48,0,0,1,3.86,1.39,50.27,50.27,0,0,1,7.43,4.91c2,1.5,4.81-1.43,3.42-3.42a18,18,0,0,0-8.34-6.53c-1.74-.68-3.68,1.38-3.08,3.08,2.24,6.26,7.43,10.45,13,13.76,1.8,1.08,4.39-.72,3.67-2.82l-3.81-11.24c-1.16-3.43-2.61-6.93-2.74-10.59a2.51,2.51,0,0,0-4.91-.66,16.9,16.9,0,0,0-.05,10.5,19.88,19.88,0,0,0,5.37,8.95,7.3,7.3,0,0,0,5,2,5,5,0,0,0,4.71-3.14c.61-1.95-.67-3.92-1.42-5.66s-1.55-3.58-2.36-5.35a124.44,124.44,0,0,0-6.15-12.07c-1.49-2.53-5.1-.78-4.56,1.93a83.63,83.63,0,0,0,3.88,13.62c.86,2.23,1.8,4.44,2.82,6.6q.78,1.62,1.62,3.21c.28.51.59,1,.83,1.54.13.26.18.77.35.42h4.32c-2.33-5.32-2.64-11.28-4-16.87-1.25-5.06-3.41-10.17-7.47-13.62a2.54,2.54,0,0,0-4.18,1.1c-1.09,3-1.06,6.37-1.31,9.51-.21,2.75-1.07,6.29.64,8.72a2.56,2.56,0,0,0,3.42.9,2.52,2.52,0,0,0,.89-3.42Z"
            transform="translate(-201.49 -161.32)" />
    </g>
    <g id="left-heart2">
        <path class="cls-8"
            d="M347.08,337a20,20,0,0,0-7.76-8.94c-3.6-2.05-8.1-1.66-10.35,2.1-2.15,3.59-1.08,7.77.87,11.18,2.24,3.9,4.85,7.63,7.28,11.42l8.43,13.13c.94,1.45,3.47,1.79,4.32,0l6.07-12.78c2-4.17,4.13-8.3,5.88-12.58,1.58-3.89,2.48-8.26.72-12.26a7,7,0,0,0-4.14-4,7,7,0,0,0-6,1.32,22.43,22.43,0,0,0-8,11,2.5,2.5,0,0,0,4.82,1.33,17.24,17.24,0,0,1,2.74-5.08c1-1.34,2.52-3.05,4.17-3.69,1.38-.53,2,1.18,2.21,2.24a10.46,10.46,0,0,1-.6,5.74c-1.43,4.42-3.82,8.6-5.81,12.79l-6.4,13.44h4.32l-8-12.5c-2.57-4-5.32-7.93-7.68-12-.8-1.4-1.62-3-1.38-4.7.17-1.19.87-2.46,2.22-2.38,1.76.11,3.34,1.65,4.48,2.85a17.91,17.91,0,0,1,3.29,4.94,2.52,2.52,0,0,0,3.42.89,2.56,2.56,0,0,0,.89-3.42Z"
            transform="translate(-201.49 -161.32)" />
        <path class="cls-8"
            d="M348.56,341.15c.06-.56,1.21-1.38,1.57-1.74l3-3c1.73-1.71,3.38-3.64,5.53-4.83l-3.68-1.5c.78,5.12-1.67,10.2-4.13,14.52-2.61,4.58-5.52,9-7.08,14.09-.52,1.67,1.28,3.81,3.07,3.08,2.57-1.06,3.17-3.19,3.74-5.69s1.31-5.24,2.16-7.81a80.2,80.2,0,0,1,6.45-14.37L354.65,332c-.73,4-1.72,7.93-2.84,11.83q-.84,2.86-1.73,5.71c-.31,1-.62,2-.94,3l-.21.69a1,1,0,0,1,.95-.51s-.37-.12-.42-.21c-1.49-2.25-.45-5.95.43-8.32a12.27,12.27,0,0,1,5.33-6.52l-3-3.93c-2.54,3.16-4,6.84-5.48,10.56l-4.84,11.91h4.82c-1.67-5.08-2.91-10.51-.91-15.68l-4.57.6a12.76,12.76,0,0,1,1.32,7.29l4.91-.67c-.87-4.06-1.85-8.23-4-11.85s-6.68-8.44-10.93-5a6.45,6.45,0,0,0-2.19,6.06c.37,2.5,1.88,4.66,3.14,6.79l1.86,3.13a11.29,11.29,0,0,0,2.2,3.12,3.42,3.42,0,0,0,5.56-1.84c.64-2.44-.89-5.15-1.83-7.32a37.56,37.56,0,0,1-2.66-7.4l-4.17,2.43a50.37,50.37,0,0,1,4.88,7.49l3.42-3.42a24.06,24.06,0,0,1-6.08-5.48,2.58,2.58,0,0,0-3.42-.9,2.52,2.52,0,0,0-.89,3.42,30.66,30.66,0,0,0,7.87,7.28c2.19,1.41,4.55-1.31,3.42-3.42a55.64,55.64,0,0,0-5.67-8.5,2.51,2.51,0,0,0-3-.39,2.59,2.59,0,0,0-1.15,2.82,35.85,35.85,0,0,0,2.54,7.18c.45,1,.9,2,1.29,3.05a11.29,11.29,0,0,1,.6,1.78c.06.26-.1,0,0,.17V347c0-.6.44-1,1.31-1.19l1.26.34c-.3-.16-.34-.16-.13,0s.18.14,0-.15a5.08,5.08,0,0,0-.62-1l-1.36-2.29c-.81-1.37-1.64-2.72-2.42-4.1-.52-.93-1.43-2.4-.88-3.45.33-.63.48-.43,1,0,4.12,3.14,5.21,9.21,6.23,13.95a2.47,2.47,0,0,0,2.74,1.79,2.54,2.54,0,0,0,2.17-2.45,17.34,17.34,0,0,0-2-9.81c-1.09-2.08-3.85-1.26-4.57.59-2.29,5.94-1,12.49.92,18.34.82,2.49,3.91,2.24,4.82,0l4.46-11c1.28-3.14,2.42-6.58,4.58-9.26a2.54,2.54,0,0,0,.19-3.28,2.51,2.51,0,0,0-3.22-.65c-5.86,3.34-9.06,10.42-8.92,17a8.21,8.21,0,0,0,1.89,5.41,5.5,5.5,0,0,0,5.24,1.76c2.29-.58,2.79-2.85,3.42-4.82s1.19-3.79,1.76-5.7a128.47,128.47,0,0,0,3.38-13.66c.49-2.66-3.08-4.53-4.56-1.93a86.7,86.7,0,0,0-6.22,13.45c-.82,2.25-1.54,4.55-2.15,6.87-.31,1.16-.6,2.32-.85,3.5-.11.48-.19,1-.34,1.46s-.36.52.19.3l3.08,3.07c1.61-5.22,4.88-9.68,7.44-14.45,2.8-5.23,4.68-10.85,3.77-16.82-.25-1.65-2.4-2.19-3.67-1.49-2.79,1.55-5,4.06-7.21,6.28s-5.05,4.28-5.39,7.61a2.53,2.53,0,0,0,2.5,2.5,2.55,2.55,0,0,0,2.5-2.5Z"
            transform="translate(-201.49 -161.32)" />
    </g>
    <g id="left-heart3">
        <path class="cls-8"
            d="M274.7,298.92a20.77,20.77,0,0,0-12.43-1.84c-4,.8-6.84,4.13-6.18,8.31s4.21,6.51,7.83,7.83c4.23,1.54,8.67,2.62,13,3.9l15.21,4.49a2.51,2.51,0,0,0,3.07-3.07l-3.82-13.88c-1.17-4.25-2.17-8.6-3.61-12.78-1.18-3.43-2.85-6.74-5.85-8.92a8.38,8.38,0,0,0-5.73-1.72,6.09,6.09,0,0,0-5,4.08c-1.79,4.43-1.14,10.08.59,14.41a2.57,2.57,0,0,0,3.07,1.75,2.53,2.53,0,0,0,1.75-3.08,18.26,18.26,0,0,1-1.4-6.81,14.87,14.87,0,0,1,.29-3.26c.13-.59.28-1.6.82-2,1-.7,2.71.6,3.42,1.28a11.9,11.9,0,0,1,2.62,4.08c1.72,4.08,2.6,8.59,3.77,12.84l4.22,15.32,3.08-3.08-14.26-4.21c-4.51-1.34-9.11-2.51-13.55-4.05a7.73,7.73,0,0,1-4.07-2.61c-.68-1-1-2.4.05-3.26s3-.92,4.33-.87a16.59,16.59,0,0,1,6.23,1.45,2.58,2.58,0,0,0,3.42-.9,2.52,2.52,0,0,0-.9-3.42Z"
            transform="translate(-201.49 -161.32)" />
        <path class="cls-8"
            d="M278.32,301.22a3.55,3.55,0,0,1-.25-2.41l.33-4.26c.2-2.58.2-5.25,1.1-7.7l-4.18,1.1c3.76,3.19,5.4,7.87,6.44,12.56,1.27,5.72,1.88,11.5,4.26,16.92.73,1.68,3.55,1.59,4.31,0,1.32-2.74-.11-5-1.39-7.41a73.22,73.22,0,0,1-3.23-7,82.9,82.9,0,0,1-4.38-14.87l-4.57,1.92c2,3.36,3.73,6.83,5.37,10.37.82,1.76,1.61,3.54,2.39,5.33l1.2,2.79c.09.19.32,1,.45,1l.27-.86a.22.22,0,0,1-.11,0c-.06-.07-1-.19-1.22-.33a6.75,6.75,0,0,1-1.48-1.49,17.62,17.62,0,0,1-2.4-4.11,12.8,12.8,0,0,1-.42-9.19L275.9,293c.15,4,1.5,7.7,2.77,11.44l4,11.71,3.68-2.82c-4.31-2.58-8.9-5.84-10.66-10.78l-3.08,3.08a12,12,0,0,1,5.35,4.23l3.42-3.42c-3.57-2.7-7.31-5.39-11.68-6.61a13.17,13.17,0,0,0-6.79-.36,5.21,5.21,0,0,0-3.81,5.18c.12,5,5.19,6.61,9.15,7.93l3.45,1.16a12.35,12.35,0,0,0,3.65,1,3.46,3.46,0,0,0,3-5.24c-1.23-2.13-3.94-3.15-6.06-4.17a34.11,34.11,0,0,1-6.47-3.54L263.39,306a53.41,53.41,0,0,1,9.21,2.6v-4.82a23.83,23.83,0,0,1-8.12-.27,2.55,2.55,0,0,0-3.07,1.75,2.52,2.52,0,0,0,1.74,3.07,31.24,31.24,0,0,0,10.78.27,2.5,2.5,0,0,0,1.84-2.41,2.61,2.61,0,0,0-1.84-2.41,53.51,53.51,0,0,0-9.22-2.6,2.59,2.59,0,0,0-2.82,1.15,2.51,2.51,0,0,0,.39,3,33.7,33.7,0,0,0,6.33,3.77c1,.49,2.05,1,3.06,1.49.57.29,1.12.59,1.67.91.12.07.43.34.56.35l0,0c.38.18.39-.2,0-1.16l.9-.89c.49-.35.66.13.19-.19a4,4,0,0,0-.92-.31l-2.53-.84c-1.54-.52-3.09-1-4.63-1.56a5.1,5.1,0,0,1-2.71-1.59c-.22-.36-.3-.87-.13-1,.7-.53,2.61,0,3.39.14a16,16,0,0,1,3.86,1.39,48.73,48.73,0,0,1,7.43,4.91c2,1.5,4.81-1.44,3.42-3.42a17.84,17.84,0,0,0-8.34-6.53c-1.74-.68-3.68,1.37-3.07,3.07,2.23,6.26,7.42,10.45,12.95,13.77,1.8,1.07,4.39-.73,3.68-2.83l-3.81-11.24c-1.17-3.42-2.62-6.93-2.75-10.58a2.51,2.51,0,0,0-4.91-.67,16.93,16.93,0,0,0-.05,10.51,19.94,19.94,0,0,0,5.37,8.95,7.3,7.3,0,0,0,5,2,5,5,0,0,0,4.71-3.14c.62-1.95-.67-3.93-1.42-5.67s-1.55-3.57-2.35-5.35a128.94,128.94,0,0,0-6.15-12.06c-1.49-2.53-5.11-.79-4.57,1.93a83.52,83.52,0,0,0,3.88,13.61q1.29,3.36,2.82,6.6c.52,1.08,1.06,2.16,1.62,3.22.28.51.59,1,.84,1.53.12.27.18.78.35.43h4.31c-2.33-5.32-2.64-11.28-4-16.87-1.25-5.07-3.41-10.17-7.47-13.63a2.53,2.53,0,0,0-4.17,1.11c-1.1,3-1.07,6.36-1.32,9.51-.21,2.74-1.07,6.28.64,8.72a2.57,2.57,0,0,0,3.42.89,2.53,2.53,0,0,0,.9-3.42Z"
            transform="translate(-201.49 -161.32)" />
    </g>
    <g id="left-heart4">
        <path class="cls-8"
            d="M331,237.54a20,20,0,0,0-7.77-8.95c-3.59-2.05-8.09-1.66-10.34,2.1-2.16,3.59-1.09,7.78.87,11.18,2.24,3.91,4.84,7.63,7.28,11.42l8.43,13.13c.93,1.46,3.47,1.79,4.32,0l6.07-12.78c2-4.17,4.13-8.3,5.87-12.58,1.59-3.89,2.49-8.26.73-12.26a6.29,6.29,0,0,0-10.15-2.68,22.31,22.31,0,0,0-8,11,2.5,2.5,0,1,0,4.82,1.33,17.47,17.47,0,0,1,2.74-5.08c1.06-1.34,2.53-3.05,4.17-3.68,1.38-.53,2,1.17,2.22,2.23a10.54,10.54,0,0,1-.6,5.74c-1.44,4.42-3.83,8.6-5.82,12.79L329.5,263.9h4.32l-8-12.51c-2.56-4-5.31-7.92-7.68-12-.79-1.4-1.62-3-1.38-4.7.17-1.19.87-2.46,2.22-2.38,1.76.11,3.34,1.65,4.49,2.85a18,18,0,0,1,3.28,4.94,2.5,2.5,0,0,0,4.32-2.52Z"
            transform="translate(-201.49 -161.32)" />
        <path class="cls-8"
            d="M332.51,241.64c.05-.55,1.21-1.38,1.56-1.74l3-3c1.73-1.71,3.38-3.64,5.53-4.83l-3.67-1.5c.78,5.12-1.68,10.2-4.14,14.52-2.61,4.58-5.51,9-7.08,14.09-.51,1.68,1.29,3.82,3.08,3.08,2.57-1.06,3.17-3.19,3.73-5.69s1.32-5.24,2.17-7.81a79.81,79.81,0,0,1,6.45-14.37l-4.57-1.93a119.79,119.79,0,0,1-2.85,11.83q-.83,2.86-1.73,5.71l-.93,3c-.07.22-.14.45-.22.68a1,1,0,0,1,1-.51s-.37-.12-.43-.2c-1.49-2.25-.44-6,.43-8.33a12.24,12.24,0,0,1,5.34-6.52l-3-3.92c-2.55,3.16-4,6.83-5.49,10.55l-4.84,11.91h4.82c-1.67-5.07-2.9-10.51-.91-15.67l-4.57.59a12.6,12.6,0,0,1,1.32,7.29l4.91-.67c-.87-4.06-1.84-8.23-4-11.84s-6.67-8.45-10.93-5a6.46,6.46,0,0,0-2.19,6.07c.38,2.49,1.88,4.65,3.15,6.78l1.85,3.13a11.71,11.71,0,0,0,2.2,3.13,3.43,3.43,0,0,0,5.56-1.84c.65-2.45-.88-5.16-1.82-7.33a36.94,36.94,0,0,1-2.66-7.4l-4.18,2.44a50.19,50.19,0,0,1,4.89,7.49l3.42-3.42a23.76,23.76,0,0,1-6.08-5.49,2.58,2.58,0,0,0-3.42-.9c-1.05.62-1.73,2.35-.9,3.42a30.82,30.82,0,0,0,7.87,7.28c2.2,1.41,4.55-1.31,3.42-3.42a57.34,57.34,0,0,0-5.66-8.5,2.52,2.52,0,0,0-3-.39,2.59,2.59,0,0,0-1.15,2.82,35.54,35.54,0,0,0,2.54,7.19c.44,1,.9,2,1.29,3a12.85,12.85,0,0,1,.6,1.78c.05.26-.1,0,0,.18v.07c0-.6.44-1,1.31-1.19l1.26.34c-.3-.16-.35-.16-.13,0s.18.14,0-.15a5.5,5.5,0,0,0-.62-1l-1.36-2.3c-.81-1.37-1.65-2.72-2.42-4.1-.53-.93-1.43-2.4-.88-3.45.33-.62.48-.42,1,0,4.13,3.14,5.22,9.21,6.23,13.95a2.48,2.48,0,0,0,2.75,1.79,2.52,2.52,0,0,0,2.16-2.45,17.34,17.34,0,0,0-2-9.81c-1.09-2.08-3.85-1.26-4.57.6-2.29,5.94-1,12.48.91,18.33.82,2.49,3.91,2.24,4.82,0l4.47-11c1.28-3.15,2.42-6.59,4.57-9.27a2.5,2.5,0,0,0-3-3.92c-5.86,3.34-9.06,10.41-8.91,17a8.11,8.11,0,0,0,1.89,5.41,5.48,5.48,0,0,0,5.23,1.76c2.3-.58,2.8-2.84,3.42-4.81s1.19-3.8,1.76-5.71a126.13,126.13,0,0,0,3.39-13.66c.49-2.66-3.08-4.53-4.57-1.92a86.12,86.12,0,0,0-6.21,13.44q-1.23,3.39-2.16,6.87c-.31,1.16-.59,2.33-.85,3.5-.1.49-.19,1-.33,1.46s-.36.53.19.3l3.07,3.07c1.62-5.22,4.88-9.68,7.45-14.45,2.8-5.22,4.68-10.84,3.77-16.81-.25-1.66-2.4-2.2-3.67-1.5-2.8,1.55-5,4.06-7.22,6.28s-5,4.28-5.38,7.61a2.51,2.51,0,0,0,2.5,2.5,2.56,2.56,0,0,0,2.5-2.5Z"
            transform="translate(-201.49 -161.32)" />
    </g>
    <g id="left-heart5">
        <path class="cls-8"
            d="M260.65,195a20.78,20.78,0,0,0-12.43-1.84c-4.05.81-6.85,4.13-6.19,8.31s4.22,6.52,7.84,7.83c4.23,1.54,8.67,2.63,13,3.9l15.2,4.5a2.53,2.53,0,0,0,3.08-3.08l-3.82-13.88c-1.18-4.25-2.18-8.6-3.61-12.77-1.18-3.44-2.86-6.75-5.86-8.93a8.4,8.4,0,0,0-5.73-1.72,6.11,6.11,0,0,0-4.95,4.09c-1.8,4.42-1.15,10.07.58,14.41a2.58,2.58,0,0,0,3.08,1.74,2.5,2.5,0,0,0,1.74-3.07,18.54,18.54,0,0,1-1.4-6.81,15.6,15.6,0,0,1,.29-3.27c.13-.59.28-1.59.83-2,1-.7,2.7.6,3.42,1.29a12,12,0,0,1,2.62,4.08c1.71,4.07,2.6,8.58,3.77,12.84l4.22,15.31,3.07-3.07-14.25-4.22c-4.51-1.33-9.11-2.51-13.56-4a7.62,7.62,0,0,1-4.06-2.62c-.68-1-1-2.4,0-3.26s3-.92,4.33-.87a16.5,16.5,0,0,1,6.23,1.45,2.56,2.56,0,0,0,3.42-.9,2.52,2.52,0,0,0-.89-3.42Z"
            transform="translate(-201.49 -161.32)" />
        <path class="cls-8"
            d="M264.26,197.27a3.63,3.63,0,0,1-.25-2.42c.11-1.42.23-2.84.34-4.25.2-2.58.2-5.25,1.09-7.71l-4.18,1.1c3.76,3.2,5.41,7.87,6.45,12.56,1.27,5.73,1.87,11.5,4.25,16.92.74,1.68,3.55,1.6,4.32,0,1.32-2.74-.12-5-1.39-7.4-1.19-2.27-2.28-4.59-3.24-7a83.83,83.83,0,0,1-4.38-14.88l-4.57,1.93c2,3.35,3.74,6.83,5.38,10.36q1.23,2.65,2.38,5.33c.41.93.81,1.86,1.21,2.79.08.19.32,1,.44,1l.27-.87a.2.2,0,0,1-.11,0c-.06-.07-1-.2-1.21-.34a6.5,6.5,0,0,1-1.48-1.48,17.2,17.2,0,0,1-2.4-4.12,12.74,12.74,0,0,1-.42-9.19l-4.91-.66c.14,4,1.49,7.71,2.76,11.45l4,11.71,3.67-2.83c-4.31-2.58-8.9-5.84-10.66-10.77l-3.07,3.07a12,12,0,0,1,5.35,4.24l3.42-3.43c-3.57-2.69-7.31-5.39-11.69-6.6a13,13,0,0,0-6.78-.36,5.2,5.2,0,0,0-3.81,5.18c.12,5,5.19,6.6,9.14,7.93l3.45,1.15a12.75,12.75,0,0,0,3.66,1,3.46,3.46,0,0,0,3-5.24c-1.24-2.14-3.94-3.16-6.06-4.17a35.08,35.08,0,0,1-6.48-3.54L249.33,202a52.66,52.66,0,0,1,9.22,2.61v-4.82a24.07,24.07,0,0,1-8.12-.28,2.58,2.58,0,0,0-3.08,1.75,2.54,2.54,0,0,0,1.75,3.08,31.23,31.23,0,0,0,10.78.27,2.52,2.52,0,0,0,1.84-2.41,2.6,2.6,0,0,0-1.84-2.41,52.66,52.66,0,0,0-9.22-2.61,2.6,2.6,0,0,0-2.82,1.15,2.5,2.5,0,0,0,.39,3,33.22,33.22,0,0,0,6.33,3.78c1,.49,2.05,1,3.06,1.48.56.29,1.12.59,1.67.92.11.07.43.34.55.34l0,0c.37.18.38-.21,0-1.16l.9-.9c.49-.34.67.14.2-.18a4.23,4.23,0,0,0-.93-.31l-2.53-.85c-1.54-.52-3.09-1-4.62-1.55a5.16,5.16,0,0,1-2.71-1.59c-.22-.37-.3-.87-.13-1,.7-.52,2.61,0,3.39.14a16.65,16.65,0,0,1,3.86,1.39,49.49,49.49,0,0,1,7.43,4.91c2,1.5,4.81-1.44,3.42-3.42a18.07,18.07,0,0,0-8.34-6.53c-1.74-.68-3.68,1.38-3.08,3.08,2.23,6.26,7.42,10.45,13,13.76,1.8,1.08,4.38-.72,3.67-2.82l-3.81-11.24c-1.16-3.43-2.61-6.93-2.74-10.59a2.51,2.51,0,0,0-4.91-.66,16.9,16.9,0,0,0-.05,10.5,20,20,0,0,0,5.36,9,7.32,7.32,0,0,0,5,2,5,5,0,0,0,4.71-3.14c.61-2-.67-3.92-1.42-5.66s-1.56-3.58-2.36-5.35A126.73,126.73,0,0,0,267,183.63c-1.49-2.53-5.1-.78-4.57,1.93a82.67,82.67,0,0,0,3.89,13.62c.85,2.23,1.79,4.44,2.82,6.59.52,1.09,1.06,2.16,1.62,3.22.27.51.59,1,.83,1.54.13.26.18.77.35.42h4.32c-2.34-5.32-2.64-11.28-4-16.87-1.25-5.06-3.41-10.17-7.47-13.62a2.54,2.54,0,0,0-4.18,1.1c-1.09,3-1.06,6.37-1.31,9.51-.21,2.74-1.07,6.29.63,8.72a2.58,2.58,0,0,0,3.43.9,2.52,2.52,0,0,0,.89-3.42Z"
            transform="translate(-201.49 -161.32)" />
    </g>
    <g id="right-heart1">
        <path class="cls-8"
            d="M902.72,400.32c1.3-3.78,1.82-8.41.51-12.27s-4.66-6.38-8.76-5.31-6.17,4.77-7.13,8.52c-1.09,4.31-1.77,8.75-2.64,13.1l-3.08,15.56c-.33,1.69,1.15,3.8,3.08,3.07l13.7-5.17c4.22-1.59,8.54-3,12.67-4.89,3.31-1.48,6.7-3.65,8.34-7a8,8,0,0,0,.73-6.05,6.36,6.36,0,0,0-4.63-4c-4.74-1.22-10.13,0-14.39,2.19-2.87,1.46-.34,5.78,2.52,4.31a17.46,17.46,0,0,1,6.18-1.84,16.77,16.77,0,0,1,3.47,0,3.76,3.76,0,0,1,1.78.48c1,.84-.07,2.72-.67,3.53a11.34,11.34,0,0,1-3.89,3.08c-3.85,2.09-8.2,3.37-12.28,4.91l-14.86,5.61,3.07,3.08,2.89-14.58c.93-4.68,1.66-9.45,2.83-14.08.41-1.58,1-3.37,2.33-4.39,1-.74,2.33-1.1,3.22-.09s1.17,2.93,1.21,4.38a18,18,0,0,1-1,6.5,2.53,2.53,0,0,0,1.74,3.08,2.56,2.56,0,0,0,3.08-1.75Z"
            transform="translate(-201.49 -161.32)" />
        <path class="cls-8"
            d="M900.92,404.26c.48-.41,1.75-.19,2.32-.2l4-.06c2.48,0,5.11-.31,7.54.33l-1.49-3.67c-2.74,3.89-7.44,5.9-11.83,7.28-5.45,1.7-11.08,2.82-16.12,5.61-2,1.12-1.31,3.86.6,4.57,2.64,1,4.92-1,7-2.3s4.42-2.69,6.71-3.87a79.4,79.4,0,0,1,14-5.55l-1.93-4.57c-3.16,2.27-6.46,4.34-9.82,6.3-1.76,1-3.52,2-5.3,3l-2.46,1.34a13.89,13.89,0,0,0-1.23.67.92.92,0,0,1,1,.32c-.14-.1-.2-.21-.17-.33.22-2.56,3.5-4.47,5.56-5.56a12.43,12.43,0,0,1,8.81-1.28l.66-4.91c-4.12.53-7.77,2.22-11.53,3.89l-11.52,5.13,3.42,3.42c2.31-4.82,5.21-9.66,10.24-12L895.74,399a12.76,12.76,0,0,1-4.09,6.2l3.93,3c2.35-3.8,4.8-7.85,5.58-12.33.41-2.34.61-5.06-.41-7.28a5.13,5.13,0,0,0-5.44-2.91c-5.13.67-6.09,6.13-7.07,10.29l-.83,3.54a8.73,8.73,0,0,0-.45,3.68,3.44,3.44,0,0,0,5.61,2c2-1.51,2.72-4.42,3.55-6.65a33.53,33.53,0,0,1,3-6.72l-4.66-1.26a49.21,49.21,0,0,1-1.65,8.76h4.82a25.63,25.63,0,0,1-.51-8.77,2.51,2.51,0,0,0-2.5-2.5,2.56,2.56,0,0,0-2.5,2.5,29.63,29.63,0,0,0,.69,10.1c.58,2.44,4.17,2.31,4.82,0a57.58,57.58,0,0,0,1.83-10.09c.25-2.62-3.43-3.18-4.66-1.26a34.24,34.24,0,0,0-3.08,6.71c-.4,1.06-.77,2.13-1.2,3.18q-.31.78-.69,1.53l-.28.5s.66-.17,0-.07h1.33l.39.22.64,1.1c-.22-.54-.21.21-.07,0a4.22,4.22,0,0,0,.26-1.1l.55-2.36c.37-1.55.72-3.1,1.1-4.65a6.78,6.78,0,0,1,1.31-3.23,1.44,1.44,0,0,1,.91-.47c.27,0,.18,0,.25.09.56.7.25,2.68.15,3.47a17.17,17.17,0,0,1-1,3.86,44.12,44.12,0,0,1-4.11,7.66c-1.57,2.54,1.85,4.79,3.92,3a17.35,17.35,0,0,0,5.38-8.41c.65-2.26-1.8-3.7-3.68-2.83-5.75,2.67-9.37,8.25-12,13.78a2.52,2.52,0,0,0,3.42,3.42L898.89,410c3.16-1.4,6.44-3.17,9.91-3.61a2.54,2.54,0,0,0,2.46-2.17,2.5,2.5,0,0,0-1.8-2.74c-6.72-1.7-14.53,1.32-18.83,6.7a7.39,7.39,0,0,0-1.85,5.06,5.22,5.22,0,0,0,3.07,4.64c2.06.77,3.88-.57,5.63-1.53s3.56-1.94,5.32-2.94a126,126,0,0,0,11.45-7.23,2.54,2.54,0,0,0,1-3.13,2.5,2.5,0,0,0-2.95-1.44,87.06,87.06,0,0,0-13.58,5.26c-2.12,1-4.2,2.16-6.22,3.38-1,.6-2,1.23-3,1.88-.47.31-.93.65-1.42.94a2.93,2.93,0,0,1-.6.33c-.15,0,.65.25-.2-.07l.59,4.57c5.11-2.82,10.94-3.71,16.41-5.6,5.22-1.81,10.09-4.48,13.33-9.09a2.51,2.51,0,0,0-1.49-3.67c-3.18-.84-6.57-.54-9.82-.49-3.06,0-6.45-.4-8.93,1.7a2.53,2.53,0,0,0,0,3.54,2.55,2.55,0,0,0,3.53,0Z"
            transform="translate(-201.49 -161.32)" />
    </g>
    <g id="right-heart2">
        <path class="cls-8"
            d="M862.35,318.5a20.24,20.24,0,0,0-9.55-6.85c-4-1.22-8.36.28-9.64,4.5-1.19,3.91.71,7.61,3.31,10.45,3,3.31,6.5,6.32,9.75,9.44l11.43,11a2.52,2.52,0,0,0,4.18-1.1l3-14.08c.92-4.37,2-8.75,2.69-13.17.56-3.85.65-8.1-1.58-11.48a7.54,7.54,0,0,0-5.06-3.62,6.68,6.68,0,0,0-5.66,2.27c-3.34,3.44-5.06,8.31-5.52,13a2.53,2.53,0,0,0,2.5,2.5,2.55,2.55,0,0,0,2.5-2.5,17.07,17.07,0,0,1,1.71-5.93c.66-1.32,1.8-3.74,3.3-4.3,1.16-.44,2.12,1.26,2.51,2.14a11.5,11.5,0,0,1,.59,5.49c-.35,4.46-1.67,8.93-2.6,13.3l-3.19,15,4.18-1.1-10.72-10.3c-3.49-3.35-7.19-6.57-10.46-10.13a6.94,6.94,0,0,1-2.22-4.26c0-1.15.36-2.37,1.65-2.58,1.68-.28,3.5.8,4.86,1.65a18,18,0,0,1,4.51,4.16,2.52,2.52,0,0,0,3.54,0,2.57,2.57,0,0,0,0-3.53Z"
            transform="translate(-201.49 -161.32)" />
        <path class="cls-8"
            d="M864.84,322.76c-.13-1,.56-1.83,1.08-2.68l2.25-3.62c1.29-2.07,2.45-4.32,4.27-6l-4.18-1.1c2,4.83,1.16,10-.21,14.85-1.5,5.37-3.46,10.59-3.83,16.21A2.51,2.51,0,0,0,868,342.6c2.19-1.58,2.3-3.79,2.26-6.28q-.06-4.05.27-8.07a80.16,80.16,0,0,1,3-15.66l-4.91-.66c.21,4.06.16,8.12,0,12.19-.1,2.11-.24,4.22-.38,6.33a20.62,20.62,0,0,0-.21,2.93c.11,1.66-.3-1.29.69-.32a4,4,0,0,1-.46-.14c-1.11-.59-1.31-2.68-1.44-3.77a18.16,18.16,0,0,1,0-4.42,12.42,12.42,0,0,1,3.72-7.58l-3.93-3c-1.68,3.54-2.22,7.32-2.8,11.15l-1.9,12.47,4.57-.6c-2.6-4.21-5.28-9.26-4.59-14.4l-4.18,1.11a12.75,12.75,0,0,1,3,6.82l4.57-1.93c-1.78-3.73-3.69-7.5-6.58-10.52-2.73-2.86-8.16-6.56-11.58-2.64a6.39,6.39,0,0,0-1.14,6.23c.8,2.28,2.54,4,4.19,5.68l2.7,2.79a18.1,18.1,0,0,0,2.93,2.81,3.47,3.47,0,0,0,5.39-3c0-2.49-2-4.66-3.43-6.54a37,37,0,0,1-4.39-6.7l-3.92,3a53.43,53.43,0,0,1,7,6.55l2.43-4.18a24.25,24.25,0,0,1-7.17-3.94,2.56,2.56,0,0,0-3.53,0,2.5,2.5,0,0,0,0,3.53,31,31,0,0,0,9.37,5.23c2.52.88,4-2.45,2.43-4.18a52.85,52.85,0,0,0-7-6.55,2.51,2.51,0,0,0-3.93,3,33,33,0,0,0,3.88,6c.68.9,1.37,1.8,2,2.73a18.89,18.89,0,0,1,1,1.59l.16.29c0,.16.05.2,0,.12a1.34,1.34,0,0,1,.61-1.15l1.27-.34c.49.32.6.37.33.12s-.32-.31-.47-.48l-.85-.87-1.86-1.91c-1.16-1.2-2.38-2.36-3.47-3.63a3.44,3.44,0,0,1-1.11-2.54c0-.09.31-.53.16-.45s-.1,0,0-.06a1.55,1.55,0,0,1,.77.22c4.8,2.06,7.3,7.81,9.39,12.2a2.49,2.49,0,0,0,3.13,1,2.55,2.55,0,0,0,1.44-3,17.26,17.26,0,0,0-4.24-9c-1.15-1.3-3.93-.75-4.18,1.1-.9,6.65,1.66,12.7,5.09,18.26,1,1.65,4.23,1.65,4.57-.6l1.83-12c.53-3.48.84-7.23,2.37-10.45a2.51,2.51,0,0,0-3.93-3c-4.94,4.63-6.37,12.36-4.63,18.76,1,3.49,4.44,7,8.31,5.25,2.18-1,2.27-3.11,2.42-5.22s.3-4.22.41-6.33a128.28,128.28,0,0,0,.13-14.14c-.15-2.77-4.1-3.45-4.91-.67a85.8,85.8,0,0,0-2.91,14.62q-.4,3.54-.49,7.11c0,1.27,0,2.53,0,3.8a9,9,0,0,0,0,1.47c.07.35-.32.41.21,0l3.76,2.16c.36-5.58,2.63-10.8,4-16.17s2-11.06-.14-16.22a2.54,2.54,0,0,0-4.18-1.1c-2.24,2-3.71,4.84-5.29,7.39s-4.15,5.4-3.77,8.42a2.58,2.58,0,0,0,2.5,2.5,2.51,2.51,0,0,0,2.5-2.5Z"
            transform="translate(-201.49 -161.32)" />
    </g>
    <g id="right-heart3">
        <path class="cls-8"
            d="M944.08,285.31c1.1-3.87,1.4-8.48-.09-12.29s-4.88-6.27-9-5-6,5-6.74,8.82c-.86,4.35-1.29,8.83-1.91,13.22l-2.22,15.7a2.54,2.54,0,0,0,3.68,2.82l13.39-5.91c4-1.79,8.21-3.41,12.12-5.47,3.12-1.65,6.2-3.94,7.67-7.26a7.87,7.87,0,0,0,.33-6.49,6.31,6.31,0,0,0-4.58-3.37c-4.8-1-10.11.44-14.27,2.87-2.77,1.62-.26,5.94,2.53,4.31a18.09,18.09,0,0,1,6.28-2.27,16.59,16.59,0,0,1,3.23-.17,3.44,3.44,0,0,1,2.07.48c.93.85-.15,2.8-.72,3.62a11.48,11.48,0,0,1-3.64,3.15c-3.88,2.35-8.27,3.95-12.41,5.78l-14.53,6.42L929,307.1l2.07-14.72c.67-4.72,1.13-9.52,2-14.2.33-1.69.8-3.63,2.23-4.75.88-.69,2.09-1.08,3-.27,1.11,1,1.42,2.85,1.55,4.26a17.73,17.73,0,0,1-.63,6.56c-.88,3.1,4,4.42,4.82,1.33Z"
            transform="translate(-201.49 -161.32)" />
        <path class="cls-8"
            d="M942.45,289.3c.5-.47,1.61-.37,2.26-.42l4-.28c2.45-.17,5.11-.63,7.55-.13l-1.49-3.67c-2.53,4.05-7,6.38-11.35,8-5.33,2-10.93,3.41-15.79,6.46a2.53,2.53,0,0,0,.59,4.57c2.75.85,4.83-1.1,6.89-2.58s4.26-2.93,6.48-4.23a78.89,78.89,0,0,1,13.63-6.35l-2.44-4.18a114.18,114.18,0,0,1-9.34,6.7c-1.63,1.06-3.28,2.1-4.93,3.13l-2.59,1.6c-.15.1-1.09.71-1.11.68l1.16,0a.31.31,0,0,1,0-.1c-.17.25,0-1-.06-.75a2.2,2.2,0,0,1,.22-.53,6.26,6.26,0,0,1,1.27-1.67,17.46,17.46,0,0,1,3.82-3,12.41,12.41,0,0,1,8.53-1.77V286c-3.88.72-7.39,2.69-10.87,4.47l-11,5.65,3.67,2.82c2-4.7,4.61-9.51,9.26-12l-3.67-2.82a12.71,12.71,0,0,1-3.68,6.46l3.93,3c2.26-4.15,4.44-8.42,5-13.17a12.27,12.27,0,0,0-.78-6.68A5.13,5.13,0,0,0,936,271c-5,.81-5.81,6.19-6.54,10.31l-.64,3.59a12.59,12.59,0,0,0-.4,3.61,3.42,3.42,0,0,0,5.44,2.38c2.07-1.43,2.71-4.46,3.41-6.72A36,36,0,0,1,940,277l-4.66-1.26a48.73,48.73,0,0,1-1.13,8.83H939a25.46,25.46,0,0,1-1-8.72c.17-3.22-4.83-3.21-5,0a29.7,29.7,0,0,0,1.21,10.05c.67,2.26,4.27,2.5,4.82,0a57,57,0,0,0,1.31-10.16c.09-2.5-3.46-3.39-4.66-1.27a34.44,34.44,0,0,0-2.75,6.88c-.34,1.12-.67,2.24-1.05,3.35-.18.52-.36,1-.58,1.54-.31.74-.27.25.25.31l1.26.35c1.48.77.33,1.33.61.74a4.71,4.71,0,0,0,.21-1.2l.43-2.39c.27-1.53.52-3.08.82-4.62.2-1,.4-2.44,1.23-3.17a3.46,3.46,0,0,1,.91-.44c.66.41.46,2.72.44,3.31a15.07,15.07,0,0,1-.71,3.82,42.93,42.93,0,0,1-3.72,8.13,2.51,2.51,0,0,0,3.93,3,17.43,17.43,0,0,0,5-8.67,2.54,2.54,0,0,0-3.68-2.82c-5.85,3.11-9.11,9.07-11.55,15-.9,2.19,1.95,3.71,3.67,2.83L940.93,295c3.27-1.68,6.48-3.53,10.12-4.2,2.4-.45,2.38-4.36,0-4.82-7-1.37-14.63,2.14-18.75,7.94-2.07,2.9-2,8.33,2.11,9.45,2.1.57,4-1.05,5.65-2.08s3.3-2.06,4.94-3.12A129.22,129.22,0,0,0,956.34,290c1.94-1.56-.15-5-2.43-4.18a87.53,87.53,0,0,0-13.29,6q-3.09,1.73-6,3.71c-1,.67-1.94,1.35-2.89,2-.39.29-1.69,1.57-2.14,1.43l.6,4.57c5-3.11,10.69-4.34,16.05-6.53,5.1-2.09,9.9-5,12.88-9.74a2.51,2.51,0,0,0-1.49-3.67c-3.25-.67-6.56-.21-9.83,0-3,.2-6.55-.1-8.87,2.1s1.2,5.75,3.54,3.53Z"
            transform="translate(-201.49 -161.32)" />
    </g>
    <g id="right-heart4">
        <path class="cls-8"
            d="M871.3,218.79c-2.73-2.78-6.46-5.26-10.36-5.93s-8.33,1-9.15,5.39c-.74,4,1.39,7.53,4.36,10.08,3.46,3,7.24,5.64,10.86,8.44l12.75,9.83c1.67,1.28,3.6-.53,3.76-2.16L885,230.12c.44-4.35,1.06-8.73,1.24-13.1.16-3.77-.29-7.81-2.66-10.89a7.75,7.75,0,0,0-5.29-3.27,6.3,6.3,0,0,0-5.27,2.36c-3.17,3.67-4.56,9-4.51,13.74,0,3.21,5,3.22,5,0a18.38,18.38,0,0,1,1.12-6.57c.47-1.29,1.41-3.85,2.82-4.46s2.52,1.57,2.94,2.51a12.34,12.34,0,0,1,.88,4.85c.07,4.6-.71,9.27-1.17,13.84l-1.55,15.31,3.76-2.16-11.77-9.08c-3.7-2.86-7.64-5.56-11.14-8.68-1.17-1-2.45-2.33-2.71-3.94-.2-1.19.11-2.52,1.42-2.85,1.61-.41,3.49.38,4.89,1.09a17.74,17.74,0,0,1,4.79,3.5c2.26,2.3,5.8-1.24,3.54-3.53Z"
            transform="translate(-201.49 -161.32)" />
        <path class="cls-8"
            d="M874,222.18c-.19-.84.69-2.06,1-2.78l1.74-3.64c1-2,1.83-4.31,3.33-6l-3.93-.51c2.25,4.17,2.09,9.19,1.37,13.74-.9,5.64-2.45,11.21-2.2,17a2.53,2.53,0,0,0,4.27,1.76c1.83-1.65,1.53-4,1.27-6.23a78.67,78.67,0,0,1-.58-8,80.43,80.43,0,0,1,1.18-15.72h-4.82a116.87,116.87,0,0,1,1.24,12c.12,2,.21,4.06.29,6.1a13.37,13.37,0,0,0,.12,3.17v.37c.77-.65,1-1,.56-1,0,0-.34,0-.44-.13a5.1,5.1,0,0,1-1.07-1.34,11.23,11.23,0,0,1-.64-2,17.22,17.22,0,0,1-.54-4.57,12.2,12.2,0,0,1,2.67-7.82l-4.18-2.44c-1.29,3.75-1.32,7.77-1.49,11.69l-.53,12.35,4.27-1.77c-3.12-4-6-8.69-5.85-13.94l-4.26,1.77a12.64,12.64,0,0,1,3.79,6.39l4.57-1.93c-2.2-3.56-4.54-7.28-7.83-10-3.12-2.56-9.17-5.83-12-1.08a6.57,6.57,0,0,0-.09,6.35c1.06,2.09,3,3.53,4.79,5l3,2.48a15.55,15.55,0,0,0,3.14,2.36,3.45,3.45,0,0,0,4.86-3.94c-.46-2.34-2.61-4.25-4.18-5.91a34.58,34.58,0,0,1-4.8-5.8l-3.42,3.43a48.5,48.5,0,0,1,7.15,5.36l2.43-4.18a25.22,25.22,0,0,1-8.11-3.41c-2.72-1.74-5.23,2.58-2.53,4.32a29.73,29.73,0,0,0,9.31,3.91c2.31.53,4.38-2.41,2.44-4.18a56.27,56.27,0,0,0-8.17-6.14,2.52,2.52,0,0,0-3.42,3.42,35.41,35.41,0,0,0,4.74,5.91c.8.84,1.6,1.68,2.37,2.56a13.54,13.54,0,0,1,1,1.24c.06.09.34.49.3.51s.21-1-.08-.27l.64-1.1.38-.24h1.33c-.49-.08-1.08-.73-1.51-1.08l-2-1.7c-1.23-1-2.51-2-3.69-3.1-.73-.65-1.69-1.59-1.73-2.47,0-.27,0-.64.18-.78-.13.1.14,0,.49.08,2.35.52,4.44,2.5,6,4.22a46.58,46.58,0,0,1,4.74,6.73,2.51,2.51,0,0,0,4.57-1.93,17.36,17.36,0,0,0-5.09-8.59,2.53,2.53,0,0,0-4.27,1.76c-.17,6.66,3.37,12.42,7.32,17.48,1.43,1.84,4.18.17,4.26-1.77l.51-11.86c.16-3.65.12-7.35,1.34-10.85.8-2.31-2.57-4.31-4.18-2.43-4.46,5.19-5.29,13-2.77,19.28a8.28,8.28,0,0,0,3.36,4.27,5.56,5.56,0,0,0,5.54.11c2.08-1.27,1.86-3.54,1.78-5.65s-.16-4.07-.27-6.1a132.89,132.89,0,0,0-1.49-14.5c-.39-2.4-4.4-2.37-4.82,0a87.12,87.12,0,0,0-1.38,15.12c0,2.42.1,4.84.32,7.25.11,1.29.28,2.57.43,3.85,0,.44.08.87.1,1.32,0,1,0,.16-.06.18l4.27,1.77c-.26-5.92,1.51-11.61,2.28-17.42.71-5.39.5-10.94-2.13-15.81a2.52,2.52,0,0,0-3.93-.51c-2,2.31-3.2,5.14-4.52,7.89s-3.63,6.09-2.87,9.41c.71,3.14,5.53,1.81,4.82-1.33Z"
            transform="translate(-201.49 -161.32)" />
    </g>
    <g id="heart">
        <path class="cls-8"
            d="M955.18,178.62a20.43,20.43,0,0,0-.88-12.53c-1.55-3.48-5.21-5.75-9-4.35-4.25,1.56-5.9,5.67-6.42,9.85-.56,4.47-.75,9-1.11,13.49l-1.22,15.56c-.16,2,2.21,3,3.76,2.16l13-6.73c3.93-2,8-3.91,11.76-6.21,3.16-1.92,6-4.4,7.4-7.93a7.8,7.8,0,0,0-.05-6.23,6.23,6.23,0,0,0-4.86-3.2c-4.77-.69-10,1-13.93,3.64-2.66,1.78-.16,6.12,2.53,4.32a18.58,18.58,0,0,1,6.11-2.69c1.43-.33,4-1,5.32-.14,1.16.69.22,2.73-.28,3.6a11.14,11.14,0,0,1-3.38,3.42c-3.73,2.59-8,4.45-12,6.53l-14.1,7.3,3.76,2.16,1.13-14.32c.37-4.75.56-9.57,1.14-14.3.21-1.67.59-3.63,1.9-4.81.84-.75,2-1.29,3-.5,1.18,1,1.57,2.8,1.81,4.21a17.06,17.06,0,0,1-.2,6.37c-.69,3.14,4.13,4.48,4.82,1.33Z"
            transform="translate(-201.49 -161.32)" />
        <path class="cls-8"
            d="M953.72,182.68a3.49,3.49,0,0,1,2.18-.67l4-.53c2.41-.32,5.09-1,7.53-.63l-1.49-3.67c-2.37,4.38-6.77,7-11.18,8.95-5,2.28-10.41,4-15,7.22-1.64,1.17-1.65,4,.6,4.56,3,.73,4.94-1.38,7-3.11a75.06,75.06,0,0,1,6.12-4.54,82.92,82.92,0,0,1,13.57-7.32l-3-3.93a115.42,115.42,0,0,1-9.08,7.44q-2.35,1.74-4.73,3.43l-2.48,1.75-.58.41c-.58.31-.38.37.61.17l0-.05c-.13.21-.07-.84-.09-.64a3,3,0,0,1,.21-.73,6.72,6.72,0,0,1,1.16-1.68,17.6,17.6,0,0,1,3.47-3.15,13,13,0,0,1,9.05-2.32l-.66-4.91c-3.77.94-7.08,3-10.38,5l-10.84,6.44,3.67,2.82c1.64-4.79,3.93-9.85,8.4-12.6l-3.67-2.83a12.65,12.65,0,0,1-3.2,6.71l3.93,3c2-4.36,4.07-8.88,4.27-13.77a12.26,12.26,0,0,0-1.2-6.46,5.2,5.2,0,0,0-5.72-2.41c-5.07,1.16-5.42,6.76-5.9,11l-.42,3.62a10.48,10.48,0,0,0-.14,3.53,3.45,3.45,0,0,0,5.69,1.76c1.83-1.59,2.28-4.42,2.83-6.67a36.28,36.28,0,0,1,2.21-7.31l-4.66-1.26a49.91,49.91,0,0,1-.54,8.89h4.82a25.47,25.47,0,0,1-1.61-8.63c0-3.22-5-3.23-5,0a29.71,29.71,0,0,0,1.79,10,2.58,2.58,0,0,0,2.41,1.84,2.51,2.51,0,0,0,2.41-1.84,57.35,57.35,0,0,0,.72-10.22c0-2.33-3.52-3.6-4.66-1.26a35,35,0,0,0-2.36,7c-.27,1.14-.53,2.28-.84,3.41-.16.56-.32,1.13-.51,1.67,0,.07-.17.41-.18.48-.07.51-.88-.22.6-.13l1.26.34c1.09.49.33,1.46.53.51.07-.36.08-.75.12-1.12l.28-2.41c.18-1.58.33-3.17.54-4.74a6.21,6.21,0,0,1,.89-3,1.64,1.64,0,0,1,.73-.52c.12,0,.31-.14.45,0s-.1,0-.08,0c.5.44.51,2,.54,2.65a15.29,15.29,0,0,1-.41,4.21,42,42,0,0,1-3.18,8.38,2.51,2.51,0,0,0,3.93,3,17.32,17.32,0,0,0,4.48-8.92c.34-2-1.66-4.06-3.67-2.82-5.65,3.47-8.62,9.52-10.7,15.59-.72,2.1,1.87,3.89,3.67,2.82l10.42-6.18c3.07-1.82,6.1-3.86,9.61-4.73a2.49,2.49,0,0,0,1.79-2.74,2.56,2.56,0,0,0-2.46-2.17,16.82,16.82,0,0,0-10.05,2.09,19.91,19.91,0,0,0-7.79,7.25c-1.69,3-1.34,8.05,2.67,9.07,2.15.54,3.91-1.17,5.53-2.31s3.17-2.26,4.74-3.42a130.57,130.57,0,0,0,10.84-8.77,2.49,2.49,0,0,0,.2-3.28,2.56,2.56,0,0,0-3.23-.65,83.08,83.08,0,0,0-12.47,6.61c-2,1.27-3.9,2.64-5.76,4.08-1,.73-1.89,1.47-2.8,2.23-.44.37-.86.77-1.31,1.12-.15.11-.34.21-.47.32s-.36,0-.06.11l.59,4.57c9-6.48,22.17-7.31,27.94-18,.68-1.26.18-3.44-1.5-3.67-3.3-.47-6.53.15-9.8.58-2.89.38-6.63.24-8.77,2.53s1.33,5.9,3.53,3.54Z"
            transform="translate(-201.49 -161.32)" />
    </g>
</svg>